# xmcd
#
# Track frame offsets:
#	180
#	15538
#	27673
#	46773
#	59593
#	77775
#	93590
#	107111
#	119350
#	131571
#	151881
#	164678
#
# Disc length: 2406 seconds
#
# Revision: 1
# Processed by: cddbd v1.5PL3 Copyright (c) Steve Scherf et al.
# Submitted via: audiograbber 1.82.02
#
DISCID=9e09640c
DTITLE=Hufnagel - Texastraum
DYEAR=1994
DGENRE=
TTITLE0=Hufnagel - Texastraum
TTITLE1=Hufnagel - Cajun Fiddel
TTITLE2=Hufnagel - Wie die Rockys so hoch ist meine Liebe
TTITLE3=Hufnagel - Country Girl
TTITLE4=Hufnagel - Gib mir die Chance
TTITLE5=Hufnagel - Doch ich habe Dich geliebt
TTITLE6=Hufnagel - Roll on Highway heißt das Lied
TTITLE7=Hufnagel - Sweet Texas Scottish
TTITLE8=Hufnagel - Amarillo am Morgen
TTITLE9=Hufnagel - Leader unserer Band
TTITLE10=Hufnagel - Fahradtour
TTITLE11=Hufnagel - Squaredance
EXTD=
EXTT0=(Kellum/Dan Mitchell) Emi Music
EXTT1=(Instrumental) Traditional
EXTT2=(Denver(Taylor/Kniss) Richt and Slezak Music
EXTT3=( Berhrendt/Krüger/Wagner) Family Records
EXTT4=( Lionel Cartwright) Warner Brothers Music
EXTT5=( Thompson/James/Christopher) EMI MUSIC
EXTT6=(Dave Loggins) MCA MUSIC
EXTT7=( Instrumental) Traditional
EXTT8=(Stafford/Fraser) Warner/Chappel Music
EXTT9=(Dan Fogelberg) EMI
EXTT10=(Krüger/Berhrendt) Family Records
EXTT11=Traditional
PLAYORDER=
